<svg width="20" height="16" viewBox="0 0 20 16" fill="none" xmlns="http://www.w3.org/2000/svg">
<path fill-rule="evenodd" clip-rule="evenodd" d="M19 0.5H1C0.585786 0.5 0.25 0.835786 0.25 1.25V14C0.25 14.8284 0.921573 15.5 1.75 15.5H18.25C19.0784 15.5 19.75 14.8284 19.75 14V1.25C19.75 0.835786 19.4142 0.5 19 0.5V0.5ZM10 8.48281L2.92844 2H17.0716L10 8.48281ZM7.25406 8L1.75 13.0447V2.95531L7.25406 8ZM8.36406 9.01719L9.48906 10.0531C9.77592 10.3165 10.2166 10.3165 10.5034 10.0531L11.6284 9.01719L17.0659 14H2.92844L8.36406 9.01719ZM12.7459 8L18.25 2.95437V13.0456L12.7459 8Z" fill="white"/>
</svg>
